<?xml version="1.0" encoding="UTF-8"?>
<svg width="48" height="48" viewBox="0 0 48 48" fill="none" xmlns="http://www.w3.org/2000/svg">
    <path d="M24 4C12.95 4 4 12.95 4 24C4 35.05 12.95 44 24 44C26.2 44 28 42.2 28 40C28 38.85 27.55 37.85 26.85 37.1C26.2 36.4 25.8 35.45 25.8 34.4C25.8 32.2 27.6 30.4 29.8 30.4H34C39.5 30.4 44 25.9 44 20.4C44 11.25 35 4 24 4ZM12 24C9.8 24 8 22.2 8 20C8 17.8 9.8 16 12 16C14.2 16 16 17.8 16 20C16 22.2 14.2 24 12 24ZM18 16C15.8 16 14 14.2 14 12C14 9.8 15.8 8 18 8C20.2 8 22 9.8 22 12C22 14.2 20.2 16 18 16ZM30 16C27.8 16 26 14.2 26 12C26 9.8 27.8 8 30 8C32.2 8 34 9.8 34 12C34 14.2 32.2 16 30 16ZM36 24C33.8 24 32 22.2 32 20C32 17.8 33.8 16 36 16C38.2 16 40 17.8 40 20C40 22.2 38.2 24 36 24Z" fill="#FF9800"/>
</svg> 