<svg width="120" height="32" viewBox="0 0 120 32" fill="none" xmlns="http://www.w3.org/2000/svg">
  <path d="M16 0L32 16L16 32L0 16L16 0Z" fill="#6366F1"/>
  <path d="M16 6L26 16L16 26L6 16L16 6Z" fill="white"/>
  <path d="M16 12L20 16L16 20L12 16L16 12Z" fill="#6366F1"/>
  <path d="M44.6562 23H40.0938V9.15625H44.6562C46.4688 9.15625 47.8906 9.71875 48.9219 10.8438C49.9531 11.9688 50.4688 13.5 50.4688 15.4375C50.4688 17.375 49.9531 18.9062 48.9219 20.0312C47.8906 22.0104 46.4688 23 44.6562 23ZM42.0312 21.2188H44.5C45.8125 21.2188 46.8281 20.7812 47.5469 19.9062C48.2656 19.0312 48.625 17.8438 48.625 16.3438C48.625 14.8438 48.2656 13.6562 47.5469 12.7812C46.8281 11.9062 45.8125 11.4688 44.5 11.4688H42.0312V21.2188Z" fill="#111827"/>
  <path d="M60.7188 23H52.9688V9.15625H60.7188V10.9375H54.9062V15.0938H60.1875V16.875H54.9062V21.2188H60.7188V23Z" fill="#111827"/>
  <path d="M71.4688 23H69.5312L63.7188 11.4688V23H61.7812V9.15625H63.7188L69.5312 20.6875V9.15625H71.4688V23Z" fill="#111827"/>
  <path d="M82.2188 23H74.4688V9.15625H82.2188V10.9375H76.4062V15.0938H81.6875V16.875H76.4062V21.2188H82.2188V23Z" fill="#111827"/>
  <path d="M92.9688 23H85.2188V9.15625H87.1562V21.2188H92.9688V23Z" fill="#111827"/>
  <path d="M103.719 23H95.9688V9.15625H103.719V10.9375H97.9062V15.0938H103.188V16.875H97.9062V21.2188H103.719V23Z" fill="#111827"/>
</svg> 